<mxfile host="app.diagrams.net" modified="2023-12-25T16:29:21.668Z" agent="Mozilla/5.0 (Windows NT 10.0; Win64; x64) AppleWebKit/537.36 (KHTML, like Gecko) Chrome/119.0.0.0 Safari/537.36 OPR/105.0.0.0" etag="VkWpBI_SGCYjDCZVvytH" version="22.1.11" type="device">
  <diagram name="Página-1" id="dt2vCC-rgA96rPQrtqnV">
    <mxGraphModel dx="1009" dy="581" grid="1" gridSize="10" guides="1" tooltips="1" connect="1" arrows="1" fold="1" page="1" pageScale="1" pageWidth="827" pageHeight="1169" math="0" shadow="0">
      <root>
        <mxCell id="0" />
        <mxCell id="1" parent="0" />
        <mxCell id="Tpa7KFd-_vcKqINNOHfu-1" value="Usuario" style="shape=umlActor;verticalLabelPosition=bottom;verticalAlign=top;html=1;" parent="1" vertex="1">
          <mxGeometry x="140" y="390" width="40" height="60" as="geometry" />
        </mxCell>
        <mxCell id="Tpa7KFd-_vcKqINNOHfu-2" value="Juego" style="shape=umlActor;verticalLabelPosition=bottom;verticalAlign=top;html=1;" parent="1" vertex="1">
          <mxGeometry x="700" y="390" width="30" height="60" as="geometry" />
        </mxCell>
        <mxCell id="Tpa7KFd-_vcKqINNOHfu-6" value="Desplegar menú de opciones.&amp;nbsp;" style="ellipse;whiteSpace=wrap;html=1;" parent="1" vertex="1">
          <mxGeometry x="344" y="500" width="140" height="70" as="geometry" />
        </mxCell>
        <mxCell id="Tpa7KFd-_vcKqINNOHfu-7" value="Escribir una de las opciones" style="ellipse;whiteSpace=wrap;html=1;" parent="1" vertex="1">
          <mxGeometry x="344" y="390" width="140" height="70" as="geometry" />
        </mxCell>
        <mxCell id="Tpa7KFd-_vcKqINNOHfu-10" value="Use" style="endArrow=open;endSize=12;dashed=1;html=1;rounded=0;entryX=0;entryY=0.5;entryDx=0;entryDy=0;" parent="1" source="Tpa7KFd-_vcKqINNOHfu-1" target="Tpa7KFd-_vcKqINNOHfu-7" edge="1">
          <mxGeometry width="160" relative="1" as="geometry">
            <mxPoint x="670" y="290" as="sourcePoint" />
            <mxPoint x="340" y="320" as="targetPoint" />
          </mxGeometry>
        </mxCell>
        <mxCell id="Tpa7KFd-_vcKqINNOHfu-14" value="" style="endArrow=open;endFill=1;endSize=12;html=1;rounded=0;entryX=1;entryY=0;entryDx=0;entryDy=0;" parent="1" source="Tpa7KFd-_vcKqINNOHfu-2" target="Tpa7KFd-_vcKqINNOHfu-6" edge="1">
          <mxGeometry width="160" relative="1" as="geometry">
            <mxPoint x="690" y="430" as="sourcePoint" />
            <mxPoint x="490" y="330" as="targetPoint" />
          </mxGeometry>
        </mxCell>
        <mxCell id="Tpa7KFd-_vcKqINNOHfu-16" value="Validar que la opción siga la lógica del juego" style="ellipse;whiteSpace=wrap;html=1;" parent="1" vertex="1">
          <mxGeometry x="344" y="260" width="140" height="70" as="geometry" />
        </mxCell>
        <mxCell id="Tpa7KFd-_vcKqINNOHfu-17" value="" style="endArrow=block;dashed=1;endFill=0;endSize=12;html=1;rounded=0;exitX=0.5;exitY=0;exitDx=0;exitDy=0;entryX=0.5;entryY=1;entryDx=0;entryDy=0;" parent="1" source="Tpa7KFd-_vcKqINNOHfu-7" target="Tpa7KFd-_vcKqINNOHfu-16" edge="1">
          <mxGeometry width="160" relative="1" as="geometry">
            <mxPoint x="330" y="330" as="sourcePoint" />
            <mxPoint x="490" y="330" as="targetPoint" />
          </mxGeometry>
        </mxCell>
        <mxCell id="Tpa7KFd-_vcKqINNOHfu-18" value="include" style="edgeLabel;html=1;align=center;verticalAlign=middle;resizable=0;points=[];" parent="Tpa7KFd-_vcKqINNOHfu-17" vertex="1" connectable="0">
          <mxGeometry x="-0.0133" y="-2" relative="1" as="geometry">
            <mxPoint as="offset" />
          </mxGeometry>
        </mxCell>
        <mxCell id="Tpa7KFd-_vcKqINNOHfu-19" value="Animar barco en movimiento" style="ellipse;whiteSpace=wrap;html=1;" parent="1" vertex="1">
          <mxGeometry x="520" y="150" width="140" height="70" as="geometry" />
        </mxCell>
        <mxCell id="Tpa7KFd-_vcKqINNOHfu-20" value="Presentar &quot;Game Over&quot;" style="ellipse;whiteSpace=wrap;html=1;" parent="1" vertex="1">
          <mxGeometry x="190" y="150" width="140" height="70" as="geometry" />
        </mxCell>
        <mxCell id="Tpa7KFd-_vcKqINNOHfu-21" value="" style="endArrow=block;dashed=1;endFill=0;endSize=12;html=1;rounded=0;exitX=1;exitY=0.5;exitDx=0;exitDy=0;entryX=0.214;entryY=1;entryDx=0;entryDy=0;entryPerimeter=0;" parent="1" source="Tpa7KFd-_vcKqINNOHfu-16" target="Tpa7KFd-_vcKqINNOHfu-19" edge="1">
          <mxGeometry width="160" relative="1" as="geometry">
            <mxPoint x="424" y="400" as="sourcePoint" />
            <mxPoint x="424" y="340" as="targetPoint" />
          </mxGeometry>
        </mxCell>
        <mxCell id="Tpa7KFd-_vcKqINNOHfu-22" value="include" style="edgeLabel;html=1;align=center;verticalAlign=middle;resizable=0;points=[];" parent="Tpa7KFd-_vcKqINNOHfu-21" vertex="1" connectable="0">
          <mxGeometry x="-0.0133" y="-2" relative="1" as="geometry">
            <mxPoint as="offset" />
          </mxGeometry>
        </mxCell>
        <mxCell id="Tpa7KFd-_vcKqINNOHfu-23" value="" style="endArrow=open;endFill=1;endSize=12;html=1;rounded=0;entryX=0.643;entryY=1.029;entryDx=0;entryDy=0;entryPerimeter=0;" parent="1" target="Tpa7KFd-_vcKqINNOHfu-19" edge="1">
          <mxGeometry width="160" relative="1" as="geometry">
            <mxPoint x="700" y="430" as="sourcePoint" />
            <mxPoint x="473" y="520" as="targetPoint" />
          </mxGeometry>
        </mxCell>
        <mxCell id="Tpa7KFd-_vcKqINNOHfu-25" value="" style="endArrow=block;dashed=1;endFill=0;endSize=12;html=1;rounded=0;exitX=0;exitY=0.5;exitDx=0;exitDy=0;entryX=0.646;entryY=1.029;entryDx=0;entryDy=0;entryPerimeter=0;" parent="1" source="Tpa7KFd-_vcKqINNOHfu-16" target="Tpa7KFd-_vcKqINNOHfu-20" edge="1">
          <mxGeometry width="160" relative="1" as="geometry">
            <mxPoint x="494" y="305" as="sourcePoint" />
            <mxPoint x="560" y="230" as="targetPoint" />
          </mxGeometry>
        </mxCell>
        <mxCell id="Tpa7KFd-_vcKqINNOHfu-26" value="include" style="edgeLabel;html=1;align=center;verticalAlign=middle;resizable=0;points=[];" parent="Tpa7KFd-_vcKqINNOHfu-25" vertex="1" connectable="0">
          <mxGeometry x="-0.0133" y="-2" relative="1" as="geometry">
            <mxPoint as="offset" />
          </mxGeometry>
        </mxCell>
        <mxCell id="Tpa7KFd-_vcKqINNOHfu-27" value="" style="endArrow=block;dashed=1;endFill=0;endSize=12;html=1;rounded=0;exitX=0.42;exitY=1.029;exitDx=0;exitDy=0;entryX=0.991;entryY=0.309;entryDx=0;entryDy=0;entryPerimeter=0;exitPerimeter=0;" parent="1" source="Tpa7KFd-_vcKqINNOHfu-19" target="Tpa7KFd-_vcKqINNOHfu-7" edge="1">
          <mxGeometry width="160" relative="1" as="geometry">
            <mxPoint x="494" y="305" as="sourcePoint" />
            <mxPoint x="560" y="230" as="targetPoint" />
          </mxGeometry>
        </mxCell>
        <mxCell id="Tpa7KFd-_vcKqINNOHfu-28" value="Extends" style="edgeLabel;html=1;align=center;verticalAlign=middle;resizable=0;points=[];" parent="Tpa7KFd-_vcKqINNOHfu-27" vertex="1" connectable="0">
          <mxGeometry x="-0.0133" y="-2" relative="1" as="geometry">
            <mxPoint as="offset" />
          </mxGeometry>
        </mxCell>
        <mxCell id="Tpa7KFd-_vcKqINNOHfu-38" value="Juego del Lobito" style="text;html=1;align=center;verticalAlign=middle;resizable=0;points=[];autosize=1;strokeColor=none;fillColor=none;" parent="1" vertex="1">
          <mxGeometry x="125" y="78" width="110" height="30" as="geometry" />
        </mxCell>
      </root>
    </mxGraphModel>
  </diagram>
</mxfile>
